<?xml version="1.0" standalone="no"?>
<!DOCTYPE svg PUBLIC "-//W3C//DTD SVG 20010904//EN"
 "http://www.w3.org/TR/2001/REC-SVG-20010904/DTD/svg10.dtd">
<svg version="1.0" xmlns="http://www.w3.org/2000/svg"
 width="512.000000pt" height="512.000000pt" viewBox="0 0 512.000000 512.000000"
 preserveAspectRatio="xMidYMid meet">
<metadata>
Created by potrace 1.14, written by Peter Selinger 2001-2017
</metadata>
<g transform="translate(0.000000,512.000000) scale(0.100000,-0.100000)"
fill="#000000" stroke="none">
<path d="M72 4899 c-20 -6 -41 -23 -53 -42 -18 -29 -20 -42 -14 -136 8 -138
46 -356 89 -512 139 -505 377 -855 655 -964 l67 -26 -58 -172 c-74 -222 -106
-382 -118 -589 -10 -187 -19 -218 -104 -379 -74 -141 -96 -227 -103 -405 -5
-113 -2 -157 12 -220 85 -383 421 -751 898 -979 536 -257 1232 -330 1865 -194
704 150 1269 572 1443 1076 34 98 34 99 33 278 -1 218 -15 284 -100 444 -85
161 -94 193 -104 376 -13 229 -55 425 -147 682 l-30 82 59 21 c320 117 603
589 718 1199 43 229 50 370 21 417 -30 49 -69 57 -208 44 -604 -55 -1243 -397
-1431 -766 l-21 -41 -83 29 c-303 108 -658 160 -940 138 -218 -17 -488 -75
-672 -144 l-66 -25 -21 42 c-139 276 -555 556 -1029 692 -196 56 -486 95 -558
74z m927 -450 c129 -71 242 -151 325 -229 73 -69 156 -178 156 -204 -1 -6 -37
-29 -81 -50 -85 -41 -119 -77 -119 -126 0 -40 35 -87 74 -100 35 -11 43 -9
164 48 630 298 1158 340 1747 139 134 -46 181 -65 334 -137 124 -58 133 -61
167 -50 39 13 74 60 74 100 0 47 -34 83 -118 128 -45 24 -82 47 -82 51 0 23
86 135 152 197 81 76 232 181 343 237 l70 36 32 -52 c84 -135 198 -497 238
-757 l14 -95 -52 -48 c-29 -27 -79 -61 -112 -77 -106 -51 -99 -53 -146 45 -46
97 -73 120 -133 119 -31 -1 -46 -8 -68 -33 -41 -46 -37 -79 31 -227 169 -373
242 -636 261 -944 5 -85 17 -182 26 -215 15 -56 61 -159 104 -230 23 -39 54
-124 48 -130 -3 -3 -34 8 -69 25 -248 116 -549 17 -684 -225 -19 -33 -41 -87
-49 -120 -19 -73 -20 -203 -2 -270 40 -149 152 -283 288 -345 43 -19 77 -38
78 -41 0 -15 -194 -135 -315 -195 -268 -132 -531 -203 -870 -235 -151 -15
-533 -6 -673 15 -389 59 -719 183 -990 374 l-64 44 56 23 c163 66 271 187 321
359 23 79 17 228 -13 311 -92 251 -363 400 -620 340 -34 -8 -86 -27 -115 -42
-28 -16 -55 -29 -59 -31 -14 -7 31 105 89 218 71 139 82 181 94 380 13 222 41
357 118 580 41 120 136 351 177 432 43 85 23 153 -50 178 -27 9 -42 8 -70 -4
-30 -12 -42 -29 -81 -105 -43 -87 -47 -91 -73 -85 -45 11 -140 65 -187 106
-41 36 -45 44 -45 86 0 114 91 475 165 658 35 88 101 214 112 214 4 0 40 -19
82 -41z"/>
<path d="M1504 2760 c-50 -16 -125 -71 -161 -118 -154 -204 -1 -506 257 -506
121 0 242 78 291 186 35 80 34 193 -4 270 -31 62 -84 116 -149 149 -48 25
-180 36 -234 19z m279 -130 c74 -82 -13 -210 -114 -167 -45 18 -60 38 -65 84
-6 49 12 83 56 106 46 23 87 15 123 -23z"/>
<path d="M3424 2760 c-50 -16 -125 -71 -161 -118 -95 -125 -78 -309 38 -417
71 -67 127 -89 219 -89 92 1 149 24 219 89 69 64 95 128 96 230 0 68 -4 89
-28 137 -31 62 -84 116 -149 149 -48 25 -180 36 -234 19z m51 -106 c31 -14 65
-64 65 -94 0 -7 -7 -27 -16 -45 -19 -41 -73 -69 -114 -60 -37 8 -77 48 -85 85
-9 40 19 95 58 114 40 20 51 20 92 0z"/>
<path d="M2379 2101 c-33 -34 -39 -83 -15 -130 20 -37 143 -151 164 -151 27 0
-107 -79 -162 -95 -118 -35 -300 -9 -371 54 -62 54 -141 37 -172 -36 -20 -48
-3 -92 53 -142 43 -37 143 -81 220 -96 l31 -6 7 -107 c20 -319 127 -485 342
-529 275 -56 463 141 505 529 l12 107 47 10 c178 38 296 144 260 232 -31 74
-113 92 -175 38 -48 -42 -138 -69 -234 -69 -99 0 -163 17 -244 65 l-64 39 26
14 c35 18 129 110 147 144 24 46 18 96 -15 129 l-29 29 -152 0 -152 0 -29 -29z"/>
</g>
</svg>
